<mxfile host="Electron" modified="2023-12-26T04:44:36.178Z" agent="Mozilla/5.0 (Windows NT 10.0; Win64; x64) AppleWebKit/537.36 (KHTML, like Gecko) draw.io/22.1.2 Chrome/114.0.5735.289 Electron/25.9.4 Safari/537.36" etag="t8fLSY-6x6MIePTZtJ3Y" version="22.1.2" type="device">
  <diagram name="PÃ¡gina-1" id="0Ma8IX4UfIS65SxVsb1z">
    <mxGraphModel dx="1195" dy="703" grid="1" gridSize="10" guides="1" tooltips="1" connect="1" arrows="1" fold="1" page="1" pageScale="1" pageWidth="827" pageHeight="1169" math="0" shadow="0">
      <root>
        <mxCell id="0" />
        <mxCell id="1" parent="0" />
        <mxCell id="GlPqmCfNF14Djsw6voiW-4" value="" style="edgeStyle=orthogonalEdgeStyle;rounded=0;orthogonalLoop=1;jettySize=auto;html=1;" edge="1" parent="1" source="GlPqmCfNF14Djsw6voiW-2" target="GlPqmCfNF14Djsw6voiW-3">
          <mxGeometry relative="1" as="geometry" />
        </mxCell>
        <mxCell id="GlPqmCfNF14Djsw6voiW-2" value="crear las variables" style="rounded=1;whiteSpace=wrap;html=1;fillColor=#f0a30a;fontColor=#000000;strokeColor=#BD7000;" vertex="1" parent="1">
          <mxGeometry x="320" y="40" width="120" height="60" as="geometry" />
        </mxCell>
        <mxCell id="GlPqmCfNF14Djsw6voiW-11" value="" style="edgeStyle=orthogonalEdgeStyle;rounded=0;orthogonalLoop=1;jettySize=auto;html=1;" edge="1" parent="1" source="GlPqmCfNF14Djsw6voiW-3" target="GlPqmCfNF14Djsw6voiW-10">
          <mxGeometry relative="1" as="geometry" />
        </mxCell>
        <mxCell id="GlPqmCfNF14Djsw6voiW-3" value="crear una variable llamada total la cual recogera el primer elemento" style="whiteSpace=wrap;html=1;rounded=1;fillColor=#f0a30a;fontColor=#000000;strokeColor=#BD7000;" vertex="1" parent="1">
          <mxGeometry x="320" y="130" width="120" height="60" as="geometry" />
        </mxCell>
        <mxCell id="GlPqmCfNF14Djsw6voiW-14" value="" style="edgeStyle=orthogonalEdgeStyle;rounded=0;orthogonalLoop=1;jettySize=auto;html=1;" edge="1" parent="1" source="GlPqmCfNF14Djsw6voiW-10" target="GlPqmCfNF14Djsw6voiW-13">
          <mxGeometry relative="1" as="geometry" />
        </mxCell>
        <mxCell id="GlPqmCfNF14Djsw6voiW-22" style="edgeStyle=orthogonalEdgeStyle;rounded=0;orthogonalLoop=1;jettySize=auto;html=1;" edge="1" parent="1" source="GlPqmCfNF14Djsw6voiW-10" target="GlPqmCfNF14Djsw6voiW-21">
          <mxGeometry relative="1" as="geometry" />
        </mxCell>
        <mxCell id="GlPqmCfNF14Djsw6voiW-10" value="sumarle a total la parte Y del elemento" style="whiteSpace=wrap;html=1;rounded=1;fillColor=#f0a30a;fontColor=#000000;strokeColor=#BD7000;" vertex="1" parent="1">
          <mxGeometry x="320" y="230" width="120" height="60" as="geometry" />
        </mxCell>
        <mxCell id="GlPqmCfNF14Djsw6voiW-16" style="rounded=0;orthogonalLoop=1;jettySize=auto;html=1;" edge="1" parent="1" source="GlPqmCfNF14Djsw6voiW-13" target="GlPqmCfNF14Djsw6voiW-15">
          <mxGeometry relative="1" as="geometry" />
        </mxCell>
        <mxCell id="GlPqmCfNF14Djsw6voiW-18" style="rounded=0;orthogonalLoop=1;jettySize=auto;html=1;" edge="1" parent="1" source="GlPqmCfNF14Djsw6voiW-13" target="GlPqmCfNF14Djsw6voiW-17">
          <mxGeometry relative="1" as="geometry" />
        </mxCell>
        <mxCell id="GlPqmCfNF14Djsw6voiW-13" value="ver si el modulo de toal y 100 es 0&amp;nbsp; &amp;nbsp; &amp;nbsp;" style="whiteSpace=wrap;html=1;rounded=1;fillColor=#f0a30a;fontColor=#000000;strokeColor=#BD7000;" vertex="1" parent="1">
          <mxGeometry x="320" y="320" width="120" height="60" as="geometry" />
        </mxCell>
        <mxCell id="GlPqmCfNF14Djsw6voiW-20" style="edgeStyle=orthogonalEdgeStyle;rounded=0;orthogonalLoop=1;jettySize=auto;html=1;entryX=1;entryY=0.5;entryDx=0;entryDy=0;" edge="1" parent="1" source="GlPqmCfNF14Djsw6voiW-15" target="GlPqmCfNF14Djsw6voiW-10">
          <mxGeometry relative="1" as="geometry">
            <Array as="points">
              <mxPoint x="310" y="510" />
              <mxPoint x="560" y="510" />
              <mxPoint x="560" y="260" />
            </Array>
          </mxGeometry>
        </mxCell>
        <mxCell id="GlPqmCfNF14Djsw6voiW-15" value="si lo es hacemos total 0 para evitar erores" style="rounded=1;whiteSpace=wrap;html=1;fillColor=#f0a30a;fontColor=#000000;strokeColor=#BD7000;" vertex="1" parent="1">
          <mxGeometry x="250" y="420" width="120" height="60" as="geometry" />
        </mxCell>
        <mxCell id="GlPqmCfNF14Djsw6voiW-17" value="si no agregamos una cuenta a una variable contador" style="rounded=1;whiteSpace=wrap;html=1;fillColor=#f0a30a;fontColor=#000000;strokeColor=#BD7000;" vertex="1" parent="1">
          <mxGeometry x="410" y="420" width="120" height="60" as="geometry" />
        </mxCell>
        <mxCell id="GlPqmCfNF14Djsw6voiW-19" style="edgeStyle=entityRelationEdgeStyle;rounded=0;orthogonalLoop=1;jettySize=auto;html=1;entryX=1;entryY=0.5;entryDx=0;entryDy=0;" edge="1" parent="1" source="GlPqmCfNF14Djsw6voiW-17" target="GlPqmCfNF14Djsw6voiW-10">
          <mxGeometry relative="1" as="geometry">
            <Array as="points">
              <mxPoint x="500" y="260" />
            </Array>
          </mxGeometry>
        </mxCell>
        <mxCell id="GlPqmCfNF14Djsw6voiW-21" value="cuando termine N imprime el contador" style="rounded=1;whiteSpace=wrap;html=1;fillColor=#f0a30a;fontColor=#000000;strokeColor=#BD7000;" vertex="1" parent="1">
          <mxGeometry x="160" y="540" width="120" height="60" as="geometry" />
        </mxCell>
      </root>
    </mxGraphModel>
  </diagram>
</mxfile>
